<svg width="242" height="52" fill="none" xmlns="http://www.w3.org/2000/svg"><path d="M242 0H0v31.739h242V0z" fill="#E30613"/><path d="M242 31.739H0V52h242V31.739z" fill="#000100"/><path fill-rule="evenodd" clip-rule="evenodd" d="M211.56 36.718V27.02l-7.125-12.243h8.726l1.791 4.258c.165.357.374.963.627 1.813.24-.741.462-1.347.652-1.813l1.759-4.258h8.67l-7.392 12.243v9.697h-7.701m-27.479.001V14.784h7.658v7.296h4.67v-7.296h7.651v21.934h-7.651v-7.73h-4.67v7.73h-7.658z" fill="#fff"/><path d="M179.956 14.784h-7.784v21.94h7.784v-21.94z" fill="#fff"/><path fill-rule="evenodd" clip-rule="evenodd" d="M146.852 36.718V14.784h7.505l6.62 11.478c-.159-1.06-.234-2.228-.234-3.505v-7.973h7.391v21.934h-7.581l-6.544-11.388c.152 1.066.234 2.228.234 3.479v7.909h-7.391zm-22.751 0V14.784h7.499v9.352l4.848-9.352h8.664l-6.424 10.801 7.328 11.133h-9.258L131.6 27.55v9.167h-7.499zm-27.719 0V14.784h14.239v5.95h-6.733v2.113h6.107v5.617h-6.107v2.305h6.911v5.949H96.382zm-25.174 0V14.784h7.505l6.614 11.478a24.765 24.765 0 01-.234-3.505v-7.973h7.391v21.934h-7.581l-6.55-11.388a23.83 23.83 0 01.234 3.479v7.909h-7.392m-16.157 0l-8.125-21.94h8.29l2.253 7.94c.24.799.455 1.603.633 2.388.177.792.322 1.73.417 2.803h.146c.209-1.59.582-3.262 1.101-5.011l2.386-8.12h8.126l-8.1 21.94h-7.127zm-22.598 0V14.784h14.239v5.95h-6.734v2.113h6.107v5.617h-6.107v2.305h6.91v5.949H32.44zm-17.448 0V14.784h7.651V29.6h7.442v7.118H14.992zm85.061-24.455l4.36-4.526 4.55 1.57-5.221 4.2-3.689-1.244z" fill="#fff"/></svg>